<?xml version="1.0" encoding="utf-8"?>
<!-- Generator: Adobe Illustrator 21.1.0, SVG Export Plug-In . SVG Version: 6.00 Build 0)  -->
<svg version="1.1" id="Calque_1" xmlns="http://www.w3.org/2000/svg" xmlns:xlink="http://www.w3.org/1999/xlink" x="0px" y="0px"
	 viewBox="0 0 38 38" style="enable-background:new 0 0 38 38;" xml:space="preserve">
<style type="text/css">
	.st0{fill:#666666;}
	.st1{fill:#FFFFFF;}
</style>
<circle class="st0" cx="19" cy="19" r="19"/>
<g>
	<g>
		<path class="st1" d="M19,31.2c-5.1,0-7.7,0-8.9-0.9c-1.2-0.9-1.2-2.7-1.2-6.4c0-3.5,4.5-6.4,10.1-6.4s10.1,2.8,10.1,6.4
			c0,3.7,0,5.5-1.2,6.4C26.7,31.2,24.1,31.2,19,31.2z"/>
		<path class="st1" d="M19,17.8c5.4,0,9.9,2.7,9.9,6.1c0,3.6,0,5.4-1.1,6.2C26.6,31,23.9,31,19,31s-7.6,0-8.8-0.8
			c-1.1-0.8-1.1-2.6-1.1-6.2C9.1,20.6,13.6,17.8,19,17.8 M19,17.3c-5.7,0-10.4,3-10.4,6.6c0,7.6,0,7.6,10.4,7.6s10.4,0,10.4-7.6
			C29.4,20.3,24.7,17.3,19,17.3L19,17.3z"/>
	</g>
	<g>
		<ellipse class="st1" cx="19" cy="13.1" rx="7.1" ry="7.1"/>
		<path class="st0" d="M19,6.5c3.6,0,6.6,3,6.6,6.6c0,3.6-2.9,6.6-6.6,6.6s-6.6-3-6.6-6.6C12.4,9.5,15.4,6.5,19,6.5 M19,5.5
			c-4.2,0-7.6,3.4-7.6,7.6c0,4.2,3.4,7.6,7.6,7.6s7.6-3.4,7.6-7.6C26.6,8.9,23.2,5.5,19,5.5L19,5.5z"/>
	</g>
</g>
</svg>
