<?xml version="1.0" encoding="utf-8"?>
<!-- Generator: Adobe Illustrator 21.1.0, SVG Export Plug-In . SVG Version: 6.00 Build 0)  -->
<svg version="1.1" id="Calque_1" xmlns="http://www.w3.org/2000/svg" xmlns:xlink="http://www.w3.org/1999/xlink" x="0px" y="0px"
	 viewBox="0 0 100 100" style="enable-background:new 0 0 100 100;" xml:space="preserve">
<style type="text/css">
	.st0{enable-background:new    ;}
	.st1{fill:#0064A7;}
</style>
<g class="st0">
	<path class="st1" d="M33.8,31.9c0-2,0.5-4.3,1.5-6.5c2-4,4.9-6.8,9.3-8.3c1.7-0.8,3.5-0.9,5.6-0.9c2.3,0,4.8,0.5,6.9,1.7
		c4,2,6.8,4.9,8.3,9.3c0.5,1.7,0.9,3.5,0.9,5.6c0,2.3-0.5,4.8-1.7,6.9c-1.7,3.7-4.8,7.2-8.9,10.5c-2.8,2.5-4.8,5.2-6.5,8.3
		c-0.8,1.7-1.2,3.5-1.5,5.2h-8.9c0-2.9,0.8-6.3,2.3-9.3c2.3-4.8,5.7-8.9,10.3-12.5c2.3-2.3,3.7-4.3,4.8-6.3c0.5-0.9,0.8-2,0.8-3.2
		c0-0.8-0.3-1.5-0.5-2.3c-0.8-2-2-3.2-3.7-4.3c-0.9-0.5-2-0.8-2.9-0.8c-0.8,0-1.5,0.3-2.5,0.5c-2,0.8-3.2,2-4.3,3.7
		c-0.3,0.5-0.5,1.5-0.5,2.5L33.8,31.9z M50.8,77.7c0,1.7-0.5,3.2-1.7,4.5c-1.2,1.2-2.8,1.7-4.5,1.7c-1.7,0-3.2-0.5-4.5-1.7
		c-1.2-1.2-1.7-2.8-1.7-4.5s0.5-3.2,1.7-4.5c1.2-1.3,2.8-1.7,4.5-1.7c1.7,0,3.2,0.5,4.5,1.7C50.2,74.4,50.8,76,50.8,77.7z"/>
</g>
<g>
	<path class="st1" d="M50,2c26.5,0,48,21.5,48,48S76.5,98,50,98S2,76.5,2,50S23.5,2,50,2 M50,0C22.4,0,0,22.4,0,50s22.4,50,50,50
		s50-22.4,50-50S77.6,0,50,0L50,0z"/>
</g>
</svg>
