<?xml version="1.0" encoding="utf-8"?>
<!-- Generator: Adobe Illustrator 21.1.0, SVG Export Plug-In . SVG Version: 6.00 Build 0)  -->
<svg version="1.1" id="Calque_1" xmlns="http://www.w3.org/2000/svg" xmlns:xlink="http://www.w3.org/1999/xlink" x="0px" y="0px"
	 viewBox="0 0 187.2 78.35" enable-background="new 0 0 187.2 78.35" xml:space="preserve">
<g>
	<g>
		<path fill="#0064A7" d="M56.561,78.354c-2.389,0-3.62-1.445-3.62-4.221v-5.951h1.116v5.923c0,2.16,0.83,3.234,2.562,3.234
			c1.731,0,2.417-1.046,2.417-3.206v-5.951h1.117v5.923C60.152,76.88,58.964,78.354,56.561,78.354z"/>
		<path fill="#0064A7" d="M66.588,78.196v-4.392c0-1.617-0.572-2.347-1.774-2.347c-1.044,0-1.86,0.701-1.86,2.347v4.392h-1.073
			v-7.512h1.073V71.6c0.429-0.629,1.131-1.071,2.075-1.071c1.588,0,2.632,0.928,2.632,3.088v4.579H66.588z"/>
		<path fill="#0064A7" d="M74.382,78.354c-1.03,0-1.931-0.387-2.647-0.959l0.629-0.787c0.601,0.529,1.302,0.83,2.046,0.83
			c1.03,0,1.516-0.428,1.516-1.159c0-0.615-0.444-0.958-1.774-1.53c-1.502-0.644-2.132-1.102-2.132-2.305
			c0-1.144,0.987-1.915,2.346-1.915c1.03,0,1.831,0.329,2.404,0.801l-0.602,0.785c-0.586-0.456-1.072-0.67-1.874-0.67
			c-0.787,0-1.245,0.385-1.245,0.928c0,0.63,0.387,0.888,1.66,1.461c1.416,0.644,2.246,1.058,2.246,2.404
			C76.958,77.71,75.684,78.354,74.382,78.354z"/>
		<path fill="#0064A7" d="M83.823,74.806h-5.008c0.1,1.602,0.858,2.617,2.089,2.617c0.872,0,1.388-0.258,2.074-0.714l0.501,0.773
			c-0.901,0.571-1.559,0.872-2.69,0.872c-1.374,0-3.047-1.003-3.047-3.948c0-2.39,1.316-3.877,3.105-3.877
			c1.96,0,3.019,1.544,3.019,3.691C83.866,74.477,83.852,74.634,83.823,74.806z M80.833,71.457c-1.117,0-1.889,0.801-2.018,2.477
			h4.049C82.778,72.474,82.149,71.457,80.833,71.457z"/>
		<path fill="#0064A7" d="M89.001,71.802c-0.301-0.172-0.63-0.286-1.131-0.286c-1.044,0-1.631,0.844-1.631,2.274v4.406h-1.073
			v-7.512h1.073v0.931c0.344-0.602,1.059-1.086,1.86-1.086c0.558,0,0.916,0.071,1.173,0.185L89.001,71.802z"/>
		<path fill="#0064A7" d="M93.307,78.196h-0.945l-2.69-7.512h1.145l1.917,5.91l0.115,0.357l0.114-0.357l1.918-5.91h1.116
			L93.307,78.196z"/>
		<path fill="#0064A7" d="M97.682,69.34c-0.444,0-0.787-0.343-0.787-0.757c0-0.43,0.343-0.773,0.787-0.773
			c0.4,0,0.743,0.343,0.743,0.773C98.425,68.997,98.082,69.34,97.682,69.34z M97.123,78.196v-7.512h1.073v7.512H97.123z"/>
		<path fill="#0064A7" d="M104.505,72.216c-0.544-0.486-1.044-0.759-1.803-0.759c-1.173,0-2.075,1.058-2.075,2.933
			c0,1.847,0.787,3.033,2.118,3.033c0.729,0,1.216-0.3,1.731-0.801l0.644,0.688c-0.63,0.644-1.359,1.044-2.418,1.044
			c-1.646,0-3.162-1.26-3.162-3.877c0-2.777,1.66-3.948,3.234-3.948c1.016,0,1.789,0.371,2.375,0.886L104.505,72.216z"/>
		<path fill="#0064A7" d="M111.756,74.806h-5.007c0.1,1.602,0.858,2.617,2.089,2.617c0.872,0,1.388-0.258,2.074-0.714l0.5,0.773
			c-0.901,0.571-1.559,0.872-2.69,0.872c-1.374,0-3.047-1.003-3.047-3.948c0-2.39,1.316-3.877,3.105-3.877
			c1.96,0,3.019,1.544,3.019,3.691C111.799,74.477,111.785,74.634,111.756,74.806z M108.766,71.457
			c-1.117,0-1.889,0.801-2.018,2.477h4.049C110.712,72.474,110.082,71.457,108.766,71.457z"/>
		<path fill="#0064A7" d="M120.665,78.196V77.28c-0.529,0.574-1.245,1.074-2.261,1.074c-1.502,0-2.69-1.145-2.69-3.792
			c0-2.662,1.259-4.034,2.833-4.034c0.944,0,1.588,0.4,2.117,0.999v-3.162l1.073-0.601v10.43H120.665z M120.665,72.587
			c-0.414-0.629-1.145-1.13-2.032-1.13c-1.245,0-1.86,1.074-1.86,3.092c0,1.887,0.715,2.874,1.903,2.874
			c0.801,0,1.459-0.428,1.988-1.086V72.587z"/>
		<path fill="#0064A7" d="M129.091,74.806h-5.008c0.1,1.602,0.858,2.617,2.089,2.617c0.872,0,1.388-0.258,2.074-0.714l0.501,0.773
			c-0.902,0.571-1.56,0.872-2.69,0.872c-1.374,0-3.047-1.003-3.047-3.948c0-2.39,1.316-3.877,3.105-3.877
			c1.96,0,3.019,1.544,3.019,3.691C129.134,74.477,129.12,74.634,129.091,74.806z M126.101,71.457c-1.117,0-1.889,0.801-2.018,2.477
			h4.049C128.047,72.474,127.417,71.457,126.101,71.457z"/>
		<path fill="#0064A7" d="M132.365,78.354c-1.03,0-1.931-0.387-2.647-0.959l0.629-0.787c0.601,0.529,1.302,0.83,2.046,0.83
			c1.03,0,1.516-0.428,1.516-1.159c0-0.615-0.444-0.958-1.774-1.53c-1.502-0.644-2.132-1.102-2.132-2.305
			c0-1.144,0.987-1.915,2.346-1.915c1.031,0,1.831,0.329,2.404,0.801l-0.601,0.785c-0.586-0.456-1.072-0.67-1.874-0.67
			c-0.787,0-1.245,0.385-1.245,0.928c0,0.63,0.387,0.888,1.66,1.461c1.416,0.644,2.247,1.058,2.247,2.404
			C134.941,77.71,133.668,78.354,132.365,78.354z"/>
		<path fill="#0064A7" d="M142.964,78.354c-2.389,0-3.62-1.445-3.62-4.221v-5.951h1.116v5.923c0,2.16,0.83,3.234,2.561,3.234
			c1.731,0,2.418-1.046,2.418-3.206v-5.951h1.117v5.923C146.555,76.88,145.367,78.354,142.964,78.354z"/>
		<path fill="#0064A7" d="M152.119,71.802c-0.301-0.172-0.63-0.286-1.131-0.286c-1.044,0-1.631,0.844-1.631,2.274v4.406h-1.073
			v-7.512h1.073v0.931c0.344-0.602,1.059-1.086,1.86-1.086c0.558,0,0.916,0.071,1.173,0.185L152.119,71.802z"/>
		<path fill="#0064A7" d="M155.193,78.354c-1.031,0-1.931-0.387-2.647-0.959l0.629-0.787c0.601,0.529,1.302,0.83,2.046,0.83
			c1.03,0,1.516-0.428,1.516-1.159c0-0.615-0.444-0.958-1.774-1.53c-1.502-0.644-2.132-1.102-2.132-2.305
			c0-1.144,0.987-1.915,2.346-1.915c1.03,0,1.831,0.329,2.404,0.801l-0.601,0.785c-0.587-0.456-1.072-0.67-1.874-0.67
			c-0.787,0-1.245,0.385-1.245,0.928c0,0.63,0.386,0.888,1.66,1.461c1.416,0.644,2.246,1.058,2.246,2.404
			C157.768,77.71,156.495,78.354,155.193,78.354z"/>
		<path fill="#0064A7" d="M161.029,78.354c-1.03,0-1.931-0.387-2.647-0.959l0.629-0.787c0.601,0.529,1.302,0.83,2.046,0.83
			c1.03,0,1.516-0.428,1.516-1.159c0-0.615-0.444-0.958-1.774-1.53c-1.502-0.644-2.132-1.102-2.132-2.305
			c0-1.144,0.987-1.915,2.346-1.915c1.03,0,1.831,0.329,2.404,0.801l-0.602,0.785c-0.586-0.456-1.072-0.67-1.874-0.67
			c-0.787,0-1.245,0.385-1.245,0.928c0,0.63,0.387,0.888,1.66,1.461c1.416,0.644,2.247,1.058,2.247,2.404
			C163.605,77.71,162.332,78.354,161.029,78.354z"/>
		<path fill="#0064A7" d="M169.171,78.196V77.28c-0.529,0.574-1.273,1.074-2.347,1.074c-1.173,0-2.403-0.587-2.403-2.404
			c0-1.687,1.388-2.404,2.876-2.404c0.758,0,1.43,0.186,1.874,0.43V73.09c0-1.117-0.529-1.661-1.631-1.661
			c-0.787,0-1.431,0.214-2.046,0.573l-0.401-0.874c0.658-0.357,1.546-0.599,2.518-0.599c1.617,0,2.633,0.686,2.633,2.43v5.236
			H169.171z M169.171,74.834c-0.486-0.272-1.016-0.428-1.931-0.428c-1.102,0-1.76,0.528-1.76,1.473c0,1.116,0.615,1.603,1.531,1.603
			c0.973,0,1.703-0.501,2.16-1.13V74.834z"/>
		<path fill="#0064A7" d="M174.233,68.782c-0.444,0-0.773,0.158-0.773,0.788v1.114h1.474v0.903h-1.474v6.608h-1.073v-6.608h-1.03
			v-0.903h1.03v-1.029c0-1.346,0.729-1.845,1.774-1.845c0.429,0,0.687,0.044,0.944,0.127v1.017
			C174.863,68.841,174.576,68.782,174.233,68.782z"/>
	</g>
	<g>
		<path fill="#cc3000" d="M144.331,0.029c0,0,22.565-1.226,34.657,12.168c7.934,8.794,8.207,16.513,8.207,16.513l-11.876,0.27
			c0,0-0.866-8.393-5.98-15.629C160.14,0.337,144.331,0.029,144.331,0.029"/>
	</g>
	<path fill="#0064A7" d="M0,35.803h10.889c0,0,2.31,12.134,10.844,20.868c8.539,8.741,15.37,11.69,15.37,11.69
		S24.509,68.42,11.285,56.454C1.375,47.481,0,35.803,0,35.803"/>
	<g>
		<path fill="#0064A7" d="M89.726,30.543h-6.759l-1.369,4.05h-2.861l6.478-18.106h2.261l6.478,18.106h-2.848L89.726,30.543z
			 M88.957,28.111l-2.579-7.922h-0.049l-2.579,7.922H88.957z"/>
		<path fill="#0064A7" d="M95.662,21.702h2.547v7.684c0,0.871,0.241,1.55,0.722,2.039c0.473,0.49,1.076,0.735,1.81,0.735
			c0.733,0,1.333-0.244,1.797-0.735c0.473-0.489,0.709-1.169,0.709-2.039v-7.684h2.547v12.89h-2.547v-1.379h-0.049
			c-0.839,1.018-1.934,1.528-3.285,1.528c-1.051-0.017-1.999-0.405-2.846-1.166c-0.92-0.742-1.388-1.842-1.405-3.297V21.702z"/>
		<path fill="#0064A7" d="M109.696,17.778h2.547v3.924h1.858v1.986h-1.858v7.515c-0.017,0.655,0.285,0.973,0.905,0.957h0.954v2.433
			h-1.33c-0.895,0-1.627-0.281-2.197-0.844c-0.586-0.537-0.878-1.314-0.878-2.332v-7.728h-1.279v-1.986h1.279V17.778z"/>
		<path fill="#0064A7" d="M116.094,28.135c0-1.361,0.11-2.405,0.33-3.136c0.228-0.712,0.578-1.314,1.051-1.803
			c0.35-0.429,0.84-0.812,1.467-1.149c0.619-0.322,1.414-0.49,2.384-0.507c1.003,0.017,1.813,0.187,2.433,0.51
			c0.611,0.34,1.084,0.724,1.418,1.154c0.503,0.489,0.861,1.089,1.072,1.801c0.203,0.728,0.305,1.771,0.305,3.129
			c0,1.358-0.102,2.392-0.306,3.105c-0.212,0.712-0.57,1.328-1.075,1.85c-0.163,0.191-0.363,0.378-0.599,0.559
			c-0.212,0.207-0.485,0.384-0.819,0.533c-0.619,0.357-1.429,0.542-2.431,0.559c-0.97-0.017-1.764-0.203-2.383-0.559
			c-0.627-0.323-1.116-0.686-1.467-1.093c-0.472-0.522-0.823-1.137-1.05-1.85C116.204,30.527,116.094,29.493,116.094,28.135z
			 M124.008,28.16c0-0.923-0.041-1.595-0.123-2.018c-0.082-0.408-0.249-0.765-0.502-1.072c-0.188-0.292-0.465-0.519-0.833-0.686
			c-0.351-0.174-0.759-0.261-1.225-0.261c-0.433,0-0.833,0.088-1.201,0.263c-0.352,0.166-0.637,0.393-0.858,0.685
			c-0.221,0.307-0.38,0.664-0.478,1.072c-0.099,0.424-0.147,1.088-0.147,1.993c0,0.897,0.048,1.553,0.147,1.969
			c0.097,0.424,0.257,0.797,0.478,1.122c0.22,0.248,0.506,0.469,0.858,0.66c0.367,0.183,0.767,0.275,1.201,0.275
			c0.465,0,0.874-0.092,1.225-0.275c0.368-0.191,0.645-0.412,0.833-0.66c0.253-0.324,0.42-0.698,0.502-1.122
			C123.966,29.688,124.008,29.04,124.008,28.16z"/>
	</g>
	<g>
		<path fill="#0064A7" d="M35.334,50.544c0,1.035,0.293,1.822,0.88,2.361c0.546,0.546,1.264,0.821,2.153,0.821
			c1.035,0,1.961-0.418,2.776-1.256l1.847,1.603c-1.295,1.408-2.819,2.102-4.571,2.086c-0.668,0-1.32-0.099-1.955-0.298
			c-0.318-0.107-0.627-0.252-0.929-0.435c-0.318-0.157-0.615-0.352-0.892-0.583c-0.538-0.48-0.974-1.15-1.308-2.012
			c-0.367-0.827-0.55-1.905-0.55-3.229c0-1.275,0.159-2.335,0.476-3.179c0.318-0.861,0.725-1.54,1.222-2.037
			c0.505-0.505,1.071-0.869,1.699-1.093c0.619-0.224,1.23-0.336,1.833-0.336c1.45,0.017,2.676,0.502,3.678,1.454
			c1.018,0.969,1.535,2.302,1.552,4v2.133H35.334z M40.7,48.411c-0.033-1.007-0.299-1.769-0.797-2.284
			c-0.49-0.492-1.119-0.737-1.886-0.737c-0.768,0-1.397,0.246-1.887,0.737c-0.482,0.515-0.748,1.277-0.796,2.284H40.7z"/>
		<path fill="#0064A7" d="M46.342,43.119h2.547v1.366h0.049c0.839-1.018,1.938-1.528,3.297-1.528c1.05,0,2.011,0.378,2.883,1.131
			c0.863,0.762,1.314,1.88,1.356,3.353v8.569h-2.547v-7.685c0-0.903-0.237-1.591-0.709-2.064c-0.465-0.481-1.064-0.722-1.797-0.722
			c-0.734,0-1.337,0.241-1.81,0.722c-0.481,0.473-0.722,1.161-0.722,2.064v7.685h-2.547V43.119z"/>
		<path fill="#0064A7" d="M60.376,39.195h2.547v3.924h1.858v1.986h-1.858v7.515c-0.017,0.655,0.285,0.973,0.905,0.957h0.954v2.433
			h-1.33c-0.895,0-1.627-0.281-2.197-0.844c-0.586-0.537-0.878-1.314-0.878-2.332v-7.728h-1.279v-1.986h1.279V39.195z"/>
		<path fill="#0064A7" d="M67.404,43.119h2.547v1.366h0.054c0.839-1.018,1.94-1.528,3.301-1.528c1.02,0.017,1.908,0.346,2.666,0.99
			l-1.86,2.241c-0.539-0.431-1.097-0.648-1.676-0.648c-0.653,0-1.212,0.216-1.676,0.647c-0.522,0.424-0.791,1.107-0.808,2.052v7.771
			h-2.547V43.119z"/>
		<path fill="#0064A7" d="M78.912,50.544c0,1.035,0.293,1.822,0.88,2.361c0.546,0.546,1.264,0.821,2.153,0.821
			c1.035,0,1.961-0.418,2.776-1.256l1.847,1.603c-1.295,1.408-2.819,2.102-4.571,2.086c-0.668,0-1.32-0.099-1.955-0.298
			c-0.318-0.107-0.627-0.252-0.929-0.435c-0.318-0.157-0.615-0.352-0.892-0.583c-0.538-0.48-0.974-1.15-1.308-2.012
			c-0.367-0.827-0.55-1.905-0.55-3.229c0-1.275,0.159-2.335,0.476-3.179c0.318-0.861,0.725-1.54,1.222-2.037
			c0.505-0.505,1.071-0.869,1.699-1.093c0.619-0.224,1.23-0.336,1.833-0.336c1.45,0.017,2.676,0.502,3.678,1.454
			c1.018,0.969,1.535,2.302,1.552,4v2.133H78.912z M84.278,48.411c-0.033-1.007-0.299-1.769-0.797-2.284
			c-0.49-0.492-1.119-0.737-1.886-0.737c-0.768,0-1.397,0.246-1.887,0.737c-0.482,0.515-0.748,1.277-0.796,2.284H84.278z"/>
		<path fill="#0064A7" d="M89.919,43.119h2.547v1.341c0.847-0.961,1.939-1.461,3.275-1.503c1.556,0.042,2.692,0.605,3.408,1.689
			c0.35,0.407,0.589,0.94,0.719,1.603c0.122,0.654,0.183,1.763,0.183,3.328c0,1.523-0.061,2.616-0.183,3.278
			c-0.131,0.663-0.371,1.204-0.721,1.626c-0.35,0.497-0.81,0.894-1.38,1.192c-0.561,0.307-1.237,0.468-2.027,0.485
			c-0.651,0-1.233-0.145-1.746-0.433c-0.554-0.264-1.063-0.626-1.527-1.088v6.587h-2.547V43.119z M94.973,53.577
			c0.603,0,1.08-0.116,1.431-0.349c0.351-0.241,0.599-0.549,0.746-0.923c0.163-0.39,0.273-0.822,0.33-1.295
			c0.016-0.465,0.024-0.942,0.024-1.433c0-0.515-0.008-1.018-0.024-1.508c-0.058-0.49-0.167-0.922-0.33-1.295
			c-0.147-0.391-0.395-0.698-0.746-0.922c-0.35-0.208-0.827-0.312-1.431-0.312c-0.571,0-1.023,0.122-1.357,0.362
			c-0.351,0.241-0.608,0.557-0.771,0.946c-0.155,0.391-0.257,0.814-0.306,1.272c-0.048,0.481-0.073,0.967-0.073,1.458
			c0,0.456,0.025,0.914,0.073,1.37c0.049,0.482,0.151,0.919,0.306,1.308c0.163,0.391,0.42,0.706,0.771,0.948
			C93.95,53.451,94.402,53.577,94.973,53.577z"/>
		<path fill="#0064A7" d="M103.335,43.119h2.547v1.366h0.054c0.839-1.018,1.94-1.528,3.301-1.528c1.02,0.017,1.908,0.346,2.666,0.99
			l-1.86,2.241c-0.539-0.431-1.097-0.648-1.676-0.648c-0.653,0-1.212,0.216-1.676,0.647c-0.522,0.424-0.792,1.107-0.808,2.052v7.771
			h-2.547V43.119z"/>
		<path fill="#0064A7" d="M114.842,50.544c0,1.035,0.293,1.822,0.88,2.361c0.546,0.546,1.264,0.821,2.153,0.821
			c1.035,0,1.961-0.418,2.776-1.256l1.847,1.603c-1.295,1.408-2.819,2.102-4.571,2.086c-0.668,0-1.32-0.099-1.955-0.298
			c-0.318-0.107-0.627-0.252-0.929-0.435c-0.318-0.157-0.615-0.352-0.892-0.583c-0.538-0.48-0.974-1.15-1.308-2.012
			c-0.367-0.827-0.55-1.905-0.55-3.229c0-1.275,0.159-2.335,0.476-3.179c0.318-0.861,0.725-1.54,1.222-2.037
			c0.505-0.505,1.071-0.869,1.699-1.093c0.619-0.224,1.23-0.336,1.833-0.336c1.45,0.017,2.676,0.502,3.678,1.454
			c1.018,0.969,1.535,2.302,1.552,4v2.133H114.842z M120.208,48.411c-0.033-1.007-0.299-1.769-0.797-2.284
			c-0.49-0.492-1.119-0.737-1.886-0.737c-0.768,0-1.397,0.246-1.887,0.737c-0.482,0.515-0.748,1.277-0.796,2.284H120.208z"/>
		<path fill="#0064A7" d="M125.849,43.119h2.547v1.366h0.049c0.839-1.018,1.938-1.528,3.297-1.528c1.05,0,2.011,0.378,2.883,1.131
			c0.863,0.762,1.314,1.88,1.356,3.353v8.569h-2.547v-7.685c0-0.903-0.237-1.591-0.709-2.064c-0.465-0.481-1.064-0.722-1.797-0.722
			c-0.734,0-1.337,0.241-1.81,0.722c-0.481,0.473-0.722,1.161-0.722,2.064v7.685h-2.547V43.119z"/>
		<path fill="#0064A7" d="M141.648,50.544c0,1.035,0.293,1.822,0.88,2.361c0.546,0.546,1.264,0.821,2.153,0.821
			c1.035,0,1.961-0.418,2.776-1.256l1.847,1.603c-1.295,1.408-2.819,2.102-4.571,2.086c-0.668,0-1.32-0.099-1.955-0.298
			c-0.318-0.107-0.627-0.252-0.929-0.435c-0.318-0.157-0.615-0.352-0.892-0.583c-0.538-0.48-0.974-1.15-1.308-2.012
			c-0.367-0.827-0.55-1.905-0.55-3.229c0-1.275,0.159-2.335,0.476-3.179c0.318-0.861,0.725-1.54,1.222-2.037
			c0.505-0.505,1.071-0.869,1.699-1.093c0.619-0.224,1.23-0.336,1.833-0.336c1.45,0.017,2.676,0.502,3.678,1.454
			c1.018,0.969,1.535,2.302,1.552,4v2.133H141.648z M147.014,48.411c-0.033-1.007-0.299-1.769-0.797-2.284
			c-0.49-0.492-1.119-0.737-1.886-0.737c-0.768,0-1.397,0.246-1.887,0.737c-0.482,0.515-0.748,1.277-0.796,2.284H147.014z"/>
		<path fill="#0064A7" d="M152.655,43.119h2.547v7.684c0,0.871,0.241,1.55,0.722,2.039c0.473,0.49,1.076,0.735,1.81,0.735
			c0.733,0,1.333-0.244,1.797-0.735c0.473-0.489,0.709-1.169,0.709-2.039v-7.684h2.547v12.89h-2.547V54.63h-0.049
			c-0.839,1.018-1.934,1.528-3.285,1.528c-1.051-0.017-1.999-0.405-2.846-1.166c-0.92-0.742-1.388-1.842-1.405-3.297V43.119z"/>
		<path fill="#0064A7" d="M166.538,43.119h2.547v1.366h0.054c0.839-1.018,1.94-1.528,3.301-1.528c1.02,0.017,1.908,0.346,2.666,0.99
			l-1.86,2.241c-0.539-0.431-1.097-0.648-1.676-0.648c-0.653,0-1.212,0.216-1.676,0.647c-0.522,0.424-0.792,1.107-0.808,2.052v7.771
			h-2.547V43.119z"/>
	</g>
</g>
</svg>
